HIERARCHY
ROOT Hips
{
	OFFSET -0.179506 -22.333345 2.821913
	CHANNELS 6 Xposition Yposition Zposition Zrotation Yrotation Xrotation 
	JOINT LeftUpLeg
	{
		OFFSET 6.951974 -9.140623 -0.681533
		CHANNELS 3 Zrotation Yrotation Xrotation
		JOINT LeftLeg
		{
			OFFSET 3.427654 -37.519855 -0.449580
			CHANNELS 3 Zrotation Yrotation Xrotation
			JOINT LeftFoot
			{
				OFFSET -1.359570 -39.796059 -4.369333
				CHANNELS 3 Zrotation Yrotation Xrotation
				JOINT LeftToe
				{
					OFFSET 2.635814 -5.579078 11.928840
					CHANNELS 3 Zrotation Yrotation Xrotation
					End Site
					{
						OFFSET 0.000000 0.000000 0.000000
					}
				}
			}
		}
	}
	JOINT RightUpLeg
	{
		OFFSET -6.767048 -9.052170 -0.431982
		CHANNELS 3 Zrotation Yrotation Xrotation
		JOINT RightLeg
		{
			OFFSET -3.829005 -38.256897 -0.885003
			CHANNELS 3 Zrotation Yrotation Xrotation
			JOINT RightFoot
			{
				OFFSET 1.577377 -39.841461 -4.231180
				CHANNELS 3 Zrotation Yrotation Xrotation
				JOINT RightToe
				{
					OFFSET -2.537174 -4.814398 12.334795
					CHANNELS 3 Zrotation Yrotation Xrotation
					End Site
					{
						OFFSET 0.000000 0.000000 0.000000
					}
				}
			}
		}
	}
	JOINT Spine
	{
		OFFSET -0.253288 10.896323 -2.669631
		CHANNELS 3 Zrotation Yrotation Xrotation
		JOINT Spine1
		{
			OFFSET 0.548704 13.518043 0.109247
			CHANNELS 3 Zrotation Yrotation Xrotation
			JOINT Spine2
			{
				OFFSET 0.145701 5.292222 2.542457
				CHANNELS 3 Zrotation Yrotation Xrotation
				JOINT Neck
				{
					OFFSET -0.277840 21.387037 -4.285703
					CHANNELS 3 Zrotation Yrotation Xrotation
					JOINT Head
					{
						OFFSET 0.515184 6.496960 5.134897
						CHANNELS 3 Zrotation Yrotation Xrotation
						End Site
						{
							OFFSET 0.000000 0.000000 0.000000
						}
					}
				}
				JOINT LeftShoulder
				{
					OFFSET 7.884473 12.174932 -3.408961
					CHANNELS 3 Zrotation Yrotation Xrotation
					JOINT LeftArm
					{
						OFFSET 9.097692 3.046888 -0.886815
						CHANNELS 3 Zrotation Yrotation Xrotation
						JOINT LeftForeArm
						{
							OFFSET 25.961220 -1.277207 -2.745643
							CHANNELS 3 Zrotation Yrotation Xrotation
							JOINT LeftHand
							{
								OFFSET 24.923361 0.898606 -0.117091
								CHANNELS 3 Zrotation Yrotation Xrotation
								End Site
								{
									OFFSET 0.000000 0.000000 0.000000
								}
							}
						}
					}
				}
				JOINT RightShoulder
				{
					OFFSET -8.175920 11.883285 -3.861528
					CHANNELS 3 Zrotation Yrotation Xrotation
					JOINT RightArm
					{
						OFFSET -9.601238 3.255117 -0.914307
						CHANNELS 3 Zrotation Yrotation Xrotation
						JOINT RightForeArm
						{
							OFFSET -25.374195 -1.332924 -2.140099
							CHANNELS 3 Zrotation Yrotation Xrotation
							JOINT RightHand
							{
								OFFSET -25.529810 0.777228 -0.555919
								CHANNELS 3 Zrotation Yrotation Xrotation
								End Site
								{
									OFFSET 0.000000 0.000000 0.000000
								}
							}
						}
					}
				}
			}
		}
	}
}
MOTION
Frames: 18
Frame Time: 0.033333
-54.783897 -2.840092 99.455734 176.076433 26.920699 50.770537 38.488073 10.670211 12.458934 -10.418289 -33.683319 31.025223 -10.467079 2.118094 -15.522928 nan nan nan -24.029433 -9.778257 -86.610321 0.978804 -10.352919 20.643448 14.671679 -9.449909 -8.339485 nan nan nan -4.227331 -18.350447 59.727114 4.583007 -4.551983 -0.213422 4.377195 -11.057463 5.286110 -2.029675 26.124235 19.443897 5.309555 18.605355 6.704091 -0.312453 -16.238354 -2.723783 -2.104814 -26.554547 -24.516731 18.431681 -30.840025 -20.194969 36.518091 -20.842702 -9.226769 9.748795 -6.126676 -1.149341 50.350996 -16.883420 -1.303278 -23.351455 36.345869 -45.449225 -35.597159 -2.990400 -44.051466 
-54.747051 -2.777197 99.898010 174.270678 27.923236 51.449653 40.138055 11.500324 11.981210 -9.783081 -32.489102 30.019395 -10.807831 2.114809 -14.805613 nan nan nan -25.138852 -11.888186 -86.825911 0.575894 -10.474194 20.846840 14.856172 -9.467809 -7.758963 nan nan nan -3.068184 -18.459311 58.688404 4.747420 -3.793943 -0.178474 4.464954 -10.594243 4.913993 -1.819456 25.693461 19.852752 5.224227 18.527385 7.242400 -0.862850 -16.081180 -2.194964 -2.848341 -26.001628 -24.057520 17.703398 -30.592225 -18.779726 36.715460 -20.665218 -9.415728 10.305138 -5.308841 -0.735561 48.807670 -15.294295 -1.600691 -23.565020 37.285910 -46.135491 -36.465391 -3.070067 -44.411078 
-54.695496 -2.752266 100.300117 172.457407 28.949942 52.193990 41.691769 12.257995 11.301701 -9.235693 -31.040137 29.237072 -10.972248 2.216433 -14.007990 nan nan nan -26.052233 -13.864182 -86.765385 0.051014 -10.550122 20.931577 14.327099 -10.007684 -7.550700 nan nan nan -1.866070 -18.249366 57.309049 5.011535 -3.046437 -0.112346 4.642572 -10.062112 4.914711 -1.380462 24.965219 19.909789 5.077069 18.395559 7.897727 -1.158593 -16.023219 -1.541040 -3.267920 -25.462950 -23.897991 16.641226 -30.274885 -17.648086 36.450807 -20.757520 -8.853652 10.814716 -4.533167 -0.356649 47.218250 -13.517899 -2.126154 -23.580320 37.778745 -46.960140 -35.839498 -2.235735 -44.483401 
-54.701271 -2.742412 100.700340 170.694119 29.811905 52.924698 42.882839 12.981468 10.691229 -8.488632 -29.361063 28.426911 -11.019299 2.605138 -13.251833 nan nan nan -26.961009 -15.693378 -86.343914 -0.359044 -10.422728 20.913008 13.553313 -10.960342 -7.733803 nan nan nan -0.649530 -18.018322 56.002742 5.198376 -2.299296 -0.234493 4.796615 -9.680917 4.855585 -1.205690 24.220250 19.852862 4.951856 18.297811 8.424704 -1.679241 -15.929954 -1.001383 -3.129657 -24.553104 -23.608898 14.700618 -29.883763 -16.407097 36.499083 -20.995510 -8.366633 11.362570 -3.527167 0.142070 45.285790 -11.743996 -2.668381 -23.284256 38.087671 -47.749231 -35.903663 -1.586852 -43.920100 
-54.751564 -2.736614 101.102943 169.074582 30.540645 53.561943 43.710765 13.531583 10.270299 -7.616352 -27.704594 27.500726 -11.166564 3.394325 -12.700948 nan nan nan -27.678270 -17.564432 -85.630902 -0.497865 -10.432255 21.032426 12.881699 -11.661998 -8.135436 nan nan nan 0.395531 -17.784912 54.775365 5.306718 -1.689464 -0.247372 4.947106 -9.291219 4.660852 -1.053201 23.519717 19.776020 4.864927 18.397770 8.674033 -2.678094 -15.960441 -0.542374 -2.214760 -22.858326 -23.074680 12.080164 -29.876683 -15.836228 36.673444 -21.505849 -7.951517 12.260424 -2.146675 0.762926 42.720559 -10.286854 -3.287493 -22.605376 38.448992 -48.908667 -36.796329 -0.757667 -42.666837 
-54.826702 -2.716082 101.502449 167.639268 31.054990 54.278268 44.098483 13.876005 9.933275 -6.725173 -26.034302 26.504420 -11.448822 4.199799 -12.272870 nan nan nan -28.369373 -19.446342 -84.634436 -0.685363 -10.795439 21.208124 12.446803 -11.748421 -8.320302 nan nan nan 1.355248 -17.444424 53.422330 5.374823 -1.239229 -0.162904 5.195343 -8.935430 4.417368 -1.105607 22.754446 19.834430 4.744241 18.694465 8.715851 -3.539377 -16.045448 -0.194019 -2.432896 -21.674149 -22.851668 11.254611 -29.402467 -15.440079 36.480389 -21.575612 -8.233815 12.667978 -0.912015 1.407847 40.866816 -8.935596 -3.739677 -22.568159 38.932052 -49.242490 -36.959545 0.063592 -41.853752 
-54.909382 -2.694708 101.874931 166.383364 31.391849 55.154086 44.089347 14.233714 9.519435 -5.861656 -24.434646 25.503374 -11.458899 4.944701 -11.921706 nan nan nan -29.274785 -21.093742 -83.354721 -0.970648 -10.841345 21.344463 12.113535 -12.121497 -8.423725 nan nan nan 2.184301 -16.958958 51.996428 5.506715 -0.815393 -0.085655 5.440878 -8.627267 4.064484 -1.214288 21.747516 19.968125 4.555540 19.058511 8.514433 -4.369264 -16.026044 0.587225 -2.586477 -20.286453 -22.284394 10.606265 -29.405911 -14.547089 36.607906 -20.923433 -8.791596 12.950069 0.202258 2.039982 39.163642 -7.818893 -3.900098 -22.879660 39.488518 -49.419902 -36.567884 0.716093 -41.177887 
-55.012405 -2.697894 102.201553 165.132125 31.629266 56.025484 43.896273 14.583969 9.189379 -4.948620 -22.868165 24.237590 -11.405266 5.188953 -11.710152 nan nan nan -30.365220 -22.446403 -81.699473 -1.260142 -10.873407 21.366475 11.875015 -12.510897 -8.577372 nan nan nan 2.985686 -16.467502 50.630210 5.552836 -0.437036 -0.125864 5.574158 -8.207413 3.758616 -1.236574 20.940706 19.969089 4.435344 19.128980 8.401627 -4.996981 -15.976698 1.244838 -2.954233 -19.224713 -21.743207 10.351863 -29.116996 -14.308875 36.773540 -20.594327 -8.893013 13.246545 1.227971 2.606236 37.528314 -6.736361 -4.091556 -23.417983 39.984169 -49.848344 -35.995800 1.377103 -40.755940 
-55.162212 -2.697982 102.460808 163.860472 31.735109 56.933316 43.593432 14.705574 9.139499 -4.523504 -22.011994 22.485382 -11.611996 4.657597 -11.871313 nan nan nan -31.530740 -23.614402 -79.789691 -1.482719 -11.125083 21.201312 11.907532 -12.495294 -8.739846 nan nan nan 3.842235 -15.962387 49.234924 5.515353 -0.131089 -0.370487 5.625814 -7.738507 3.601737 -1.135891 20.386145 19.971657 4.242037 18.898390 8.353023 -5.465492 -15.876582 1.470892 -3.707815 -18.686095 -21.405882 10.472022 -28.070759 -14.859254 36.365350 -20.830312 -8.939826 13.391347 2.141324 3.089680 35.938620 -5.481228 -4.429065 -23.978282 40.348721 -50.280458 -35.509294 1.733721 -40.448215 
-55.305000 -2.657898 102.661316 162.744548 31.843996 58.018806 43.201133 14.751599 9.051525 -4.830755 -22.364841 20.636600 -12.002408 3.483605 -12.273420 nan nan nan -32.660826 -24.772576 -77.742689 -1.648430 -11.153050 21.044799 11.898998 -12.324726 -9.042638 nan nan nan 4.644735 -15.475891 47.629419 5.501067 -0.009709 -0.423180 5.740919 -7.235199 3.241968 -1.076425 19.799639 20.327052 3.985963 18.868573 7.974930 -6.288044 -15.677299 1.954569 -3.929221 -17.336177 -20.786380 9.952672 -28.085729 -14.885731 36.794405 -20.394929 -9.701283 13.733782 3.241015 3.898918 33.641311 -4.102876 -5.136057 -23.607330 40.773154 -50.419539 -37.099840 1.864506 -40.810076 
-55.414909 -2.561721 102.816444 161.778459 31.973680 59.054988 42.767151 14.799187 8.888092 -5.645534 -23.515666 19.041101 -12.352161 1.799111 -12.767702 nan nan nan -33.980186 -25.805405 -75.350105 -1.643862 -10.747926 20.976632 11.815495 -12.271487 -9.416236 nan nan nan 5.404893 -14.985432 46.090014 5.534224 0.040881 -0.404444 5.836518 -6.664095 2.733644 -1.068641 19.137204 20.548897 3.994069 18.835424 7.938240 -6.962336 -15.559526 2.217680 -4.386217 -16.102200 -20.118075 9.621911 -27.858357 -15.113440 37.377917 -20.309857 -9.937974 13.813644 4.269697 4.346478 31.898671 -3.373883 -5.619575 -23.844885 41.387563 -50.865866 -36.925856 2.208818 -40.715171 
-55.519405 -2.432582 102.898880 160.811168 32.060132 60.003140 42.230526 14.969274 8.578580 -6.765340 -25.164511 17.910477 -12.336319 0.348292 -13.111964 nan nan nan -35.212687 -26.734607 -72.883139 -1.366353 -10.259650 21.004416 11.562663 -11.993881 -9.769381 nan nan nan 6.296034 -14.426134 44.638929 5.529258 0.233267 -0.749056 5.774235 -6.238428 2.573464 -0.857336 18.487084 20.468825 4.038216 18.524003 8.270856 -7.528497 -15.468121 2.279289 -4.856273 -14.973684 -19.357728 9.476434 -27.552096 -15.075512 37.400699 -20.140962 -9.753639 13.613593 4.995578 4.261557 30.913404 -3.010678 -5.801787 -25.046019 42.169552 -51.277953 -35.380510 2.407130 -40.064695 
-55.660580 -2.296356 102.940987 159.875617 32.082784 60.864136 41.385180 15.296510 8.010527 -7.749104 -26.787740 17.400618 -12.196230 -0.521307 -13.117106 nan nan nan -36.114247 -27.575970 -70.526549 -1.054371 -9.613965 21.266025 11.238505 -11.365892 -10.209037 nan nan nan 7.175307 -13.847147 43.277942 5.442031 0.453967 -1.292176 5.677492 -5.922293 2.730092 -0.501482 17.858488 20.405203 3.843066 18.136145 8.570964 -8.124911 -15.195542 2.209575 -5.116069 -13.983646 -18.727273 9.176823 -27.245915 -14.467053 37.228920 -20.027412 -9.646325 13.594836 5.598176 4.233939 29.447657 -2.062260 -6.321382 -25.206104 42.831989 -51.042087 -36.612463 2.507182 -39.744480 
-55.839138 -2.159012 102.956253 158.957985 31.951901 61.582658 40.029892 15.418544 7.331134 -8.348119 -28.218068 17.363021 -11.846573 -0.348246 -13.010040 nan nan nan -36.837861 -27.921988 -68.095345 -1.122661 -8.285680 21.475565 11.180727 -10.923650 -10.870576 nan nan nan 7.884813 -13.250148 42.046317 5.287328 0.631197 -1.690322 5.576199 -5.540495 2.839001 -0.281007 17.130131 20.312667 3.723277 17.814180 8.853107 -8.697326 -14.925911 2.196787 -5.351926 -12.942185 -18.116943 8.980774 -27.040623 -14.113090 36.937162 -19.815794 -9.951604 13.658537 6.361219 4.398374 27.709362 -1.313723 -6.809415 -25.194259 43.443961 -51.017636 -37.509915 2.794179 -39.572486 
-56.016418 -1.749462 102.888733 158.407241 30.916738 61.509183 37.702172 17.119629 7.190956 -8.076439 -30.303478 18.431027 -10.767350 -0.583807 -13.233742 nan nan nan -32.961493 -28.700789 -67.667131 -3.251556 -0.889968 21.105256 9.912140 -10.626967 -10.933379 nan nan nan 7.463493 -12.355786 41.620968 4.855423 0.674138 -2.135934 5.851357 -5.380581 3.246189 -0.803943 16.150449 19.628756 4.281458 18.045766 9.617726 -9.143903 -14.831817 1.996210 -5.499908 -11.261410 -18.055604 8.181381 -27.236691 -12.859420 36.766143 -19.372313 -10.383080 13.507850 7.511920 4.495165 26.125192 -1.162239 -7.680384 -25.367537 44.138150 -51.133910 -36.589567 3.387425 -39.068403 
-56.263634 -1.853124 102.705544 157.161776 31.297169 63.223759 35.838294 14.646707 4.974309 -8.073342 -28.311333 18.563360 -9.554047 1.946639 -13.233923 nan nan nan -39.609177 -27.182881 -62.073395 -1.064711 -5.989511 20.409208 11.092252 -11.883344 -11.444718 nan nan nan 9.199054 -11.624318 39.292686 5.025634 1.184907 -2.491174 5.293839 -4.877266 3.166210 -0.038731 15.091259 19.899111 3.265309 17.618035 9.356026 -9.780793 -14.209165 2.453735 -5.764652 -11.827633 -17.254796 9.063915 -26.008035 -13.892053 35.315805 -19.979449 -9.304717 13.673970 7.264365 4.288155 24.165821 0.002476 -7.186803 -26.458438 43.999289 -51.873605 -35.811205 3.924531 -38.383658 
-56.479046 -1.702321 102.495735 156.235564 30.912481 63.985518 33.545587 14.196448 3.551198 -7.223372 -26.954523 19.490725 -8.150394 3.024703 -13.004202 nan nan nan -40.732208 -26.672114 -59.327977 -0.928794 -5.226660 20.210135 11.112552 -11.719400 -11.788223 nan nan nan 9.749050 -10.656389 37.855747 4.945684 1.474018 -2.775870 5.117670 -4.376585 3.388148 0.214161 14.119199 19.693941 2.990891 17.338460 9.512626 -9.941358 -13.922546 2.457757 -6.250264 -11.629463 -16.675941 9.165367 -25.154131 -13.473989 34.508699 -19.975699 -8.474539 13.437834 7.542290 4.080738 22.884833 0.614136 -7.265748 -27.150709 44.259256 -52.323705 -35.042301 4.484963 -38.460127 
-56.699100 -1.510710 102.234459 155.226192 30.418144 64.624473 31.374434 13.800689 2.237578 -6.371254 -25.196487 20.403787 -6.672612 4.019591 -12.266075 nan nan nan -41.576125 -25.913773 -56.819827 -0.847104 -4.205952 20.234439 11.145277 -11.378258 -11.948442 nan nan nan 10.168332 -9.726646 36.535101 4.810468 1.771971 -2.915666 4.955031 -3.976647 3.441116 0.449472 13.407316 19.612199 2.702202 17.099326 9.721741 -10.249114 -13.358556 2.339850 -6.408424 -11.086389 -15.935709 8.705583 -24.744798 -12.837834 34.402812 -19.864894 -8.145787 13.201460 7.901023 4.134741 21.434131 1.486198 -7.450296 -27.752693 44.392407 -52.983600 -36.692988 4.509994 -38.205567 
